<?xml version="1.0" standalone="no"?>
<!DOCTYPE svg PUBLIC "-//W3C//DTD SVG 20010904//EN"
 "http://www.w3.org/TR/2001/REC-SVG-20010904/DTD/svg10.dtd">
<svg version="1.0" xmlns="http://www.w3.org/2000/svg"
 width="700.000000pt" height="700.000000pt" viewBox="0 0 700.000000 700.000000"
 preserveAspectRatio="xMidYMid meet">
<metadata>
Created by potrace 1.14, written by Peter Selinger 2001-2017
</metadata>
<g transform="translate(0.000000,700.000000) scale(0.100000,-0.100000)"
fill="#000000" stroke="none">
<path d="M1126 6769 c-377 -55 -703 -313 -833 -660 -74 -197 -68 26 -68 -2609
0 -2203 1 -2370 17 -2442 100 -447 451 -769 902 -828 55 -7 813 -10 2411 -8
2112 3 2336 5 2396 20 449 111 761 455 819 902 7 56 10 812 7 2411 -3 2120 -4
2336 -19 2395 -96 382 -352 664 -708 780 -159 51 -81 50 -2560 49 -1268 -1
-2332 -5 -2364 -10z m2794 -274 c682 -107 1220 -373 1694 -834 515 -502 819
-1138 896 -1873 22 -212 11 -536 -26 -773 -175 -1113 -980 -2050 -2059 -2395
-300 -95 -595 -140 -927 -140 -829 1 -1586 319 -2164 911 -455 467 -724 1014
-829 1689 -22 141 -31 538 -16 695 57 587 269 1126 624 1584 105 136 392 423
528 528 447 346 977 558 1554 623 129 14 603 5 725 -15z"/>
<path d="M3403 5050 c-174 -32 -335 -150 -412 -303 -65 -130 -61 -22 -61
-1777 0 -1770 -4 -1658 67 -1793 70 -133 210 -243 359 -281 79 -20 209 -20
288 0 149 38 289 148 359 281 71 135 67 23 67 1793 0 1407 -2 1603 -15 1655
-50 192 -197 347 -383 405 -75 23 -198 32 -269 20z"/>
<path d="M1425 4011 c-224 -64 -385 -277 -385 -511 0 -188 108 -372 271 -463
121 -67 120 -67 787 -67 l601 0 -44 83 c-56 107 -91 219 -105 345 -22 185 15
379 105 550 l44 82 -607 -1 c-543 0 -613 -2 -667 -18z"/>
<path d="M4340 3957 c80 -149 113 -280 113 -457 0 -177 -33 -308 -113 -457
l-39 -73 107 0 c170 0 287 40 391 135 117 107 173 235 173 395 0 160 -56 288
-173 395 -104 95 -221 135 -391 135 l-107 0 39 -73z"/>
</g>
</svg>
