<svg xmlns="http://www.w3.org/2000/svg" width="270" height="268" viewBox="0 0 270 268">
  <g id="activity" transform="translate(-88 -337)">
    <g id="Rectangle_13" data-name="Rectangle 13" transform="translate(94 343)" fill="#fff" stroke="#459de1" stroke-linejoin="round" stroke-width="6">
      <rect width="241" height="241" rx="24" stroke="none"/>
      <rect x="-3" y="-3" width="247" height="247" rx="27" fill="none"/>
    </g>
    <g id="Ellipse_1" data-name="Ellipse 1" transform="translate(296 543)" fill="#e61919" stroke="#ff8484" stroke-width="3">
      <circle cx="31" cy="31" r="31" stroke="none"/>
      <circle cx="31" cy="31" r="29.5" fill="none"/>
    </g>
    <text id="Timer" transform="translate(327 578)" fill="#fff" font-size="17" font-family="Overpass"><tspan x="-23.154" y="0">24:00</tspan></text>
    <path id="person-hiking-solid" d="M53.312,21.326A10.663,10.663,0,1,0,42.649,10.663,10.666,10.666,0,0,0,53.312,21.326ZM17.772,63.777A3.628,3.628,0,0,0,21.3,61.142l9.134-35.152a3.306,3.306,0,0,0,.114-.859,3.49,3.49,0,0,0-2.752-3.361,18.911,18.911,0,0,0-4.448-.534A18.074,18.074,0,0,0,5.725,34.461L.112,56.268A3.332,3.332,0,0,0,0,57.135a3.481,3.481,0,0,0,2.746,3.357l14.14,3.374C17.181,63.932,17.478,63.777,17.772,63.777ZM81.746,35.543H78.392A3.379,3.379,0,0,0,75.037,39.1v3.554H67.318L56.933,32.266a14.639,14.639,0,0,0-9.641-3.832A13.044,13.044,0,0,0,34.63,38.319L28.654,62.266A7.558,7.558,0,0,0,28.432,64a7.069,7.069,0,0,0,2.078,5L49.752,88.248v18.38a7.083,7.083,0,0,0,6.909,7.109,7.255,7.255,0,0,0,7.109-7.109V88.246A14.091,14.091,0,0,0,59.6,78.194L49.192,67.78a1.488,1.488,0,0,0,.139-.305l4.243-17.66,4.969,4.972a8.964,8.964,0,0,0,5.432,2.083H74.438v53.314a3.507,3.507,0,0,0,3.354,3.554h3.354c2.577,0,4.154-1.577,4.154-3.554V39.1A3.536,3.536,0,0,0,81.746,35.543ZM17.994,104.917a7.058,7.058,0,0,0,5.164,8.608,6.225,6.225,0,0,0,1.72.211,6.724,6.724,0,0,0,6.686-5.387l5.609-22.436L25.455,74.2Z" transform="translate(171.351 406.132)" fill="#459de1"/>
  </g>
</svg>
