<svg xmlns="http://www.w3.org/2000/svg" xmlns:xlink="http://www.w3.org/1999/xlink" width="1078" height="1094" viewBox="0 0 1078 1094"><defs><clipPath id="b"><rect width="1078" height="1094"/></clipPath></defs><g id="a" clip-path="url(#b)"><g transform="translate(-8341 602)"><g transform="translate(8953.739 -483.261)"><g transform="translate(94.261 343.261)" fill="#fff" stroke="#52b74e" stroke-linejoin="round" stroke-width="6"><rect width="169" height="169" rx="24" stroke="none"/><rect x="-3" y="-3" width="175" height="175" rx="27" fill="none"/></g><path d="M50.853,32a6.1,6.1,0,0,1,6.1,6.1V70.649a6.1,6.1,0,0,1-6.1,6.1H33.906l1.348,4.068h9.5a4.068,4.068,0,0,1,0,8.137H12.2a4.068,4.068,0,0,1,0-8.137h9.5l1.348-4.068H6.1a6.1,6.1,0,0,1-6.1-6.1V38.1A6.1,6.1,0,0,1,6.1,32ZM8.137,40.137V68.614H48.819V40.137ZM75.263,32a6.1,6.1,0,0,1,6.1,6.1V82.853a6.1,6.1,0,0,1-6.1,6.1H67.126a6.1,6.1,0,0,1-6.1-6.1V38.1a6.1,6.1,0,0,1,6.1-6.1Zm-6.1,8.137a2.034,2.034,0,1,0,0,4.068h4.068a2.034,2.034,0,0,0,0-4.068Zm0,12.2h4.068a2.034,2.034,0,1,0,0-4.068H69.161a2.034,2.034,0,0,0,0,4.068Zm2.034,26.444a4.068,4.068,0,1,0-4.068-4.068A4.064,4.064,0,0,0,71.195,78.785Z" transform="translate(138.078 367.283)" fill="#52b74e"/></g><g transform="translate(8702.739 -735.261)"><g transform="translate(94.261 343.261)" fill="#fff" stroke="#da4d4d" stroke-linejoin="round" stroke-width="6"><rect width="169" height="169" rx="24" stroke="none"/><rect x="-3" y="-3" width="175" height="175" rx="27" fill="none"/></g><path d="M12.837,35.523c-3.016,2.4-5.532,7.692-7.512,13.426l8.322-3.033a.825.825,0,0,1,.913,1.309L1.516,62.678C.517,67.006,0,70.328,0,70.328s28.478,1.877,36.749-4.7c8.271-6.6,10.563-20.69,10.563-20.69L35.357,29.871S21.1,28.823,12.837,35.523ZM87.282,1.7A4.419,4.419,0,0,0,81.092.926L49.981,25.131l-4.823-6.073a1.522,1.522,0,0,0-2.564.309L39.12,26.756,51.078,41.808l8.1-1.723a1.509,1.509,0,0,0,.879-2.412l-4.575-5.76L86.522,7.762A4.241,4.241,0,0,0,87.282,1.7Z" transform="translate(134.652 392.473)" fill="#da4d4d"/></g><g transform="translate(8448.739 -483.261)"><g transform="translate(94.261 343.261)" fill="#fff" stroke="#9f9f9f" stroke-linejoin="round" stroke-width="6"><rect width="169" height="169" rx="24" stroke="none"/><rect x="-3" y="-3" width="175" height="175" rx="27" fill="none"/></g><path d="M4.113,32a4.113,4.113,0,0,1,4.113,4.113v32.9h28.79V48.452a4.108,4.108,0,0,1,4.113-4.113H69.92A12.268,12.268,0,0,1,82.258,56.677v28.79a4.113,4.113,0,1,1-8.226,0V81.355H8.226v4.113a4.113,4.113,0,0,1-8.226,0V36.113A4.113,4.113,0,0,1,4.113,32Zm8.226,22.621A10.282,10.282,0,1,1,22.621,64.9,10.279,10.279,0,0,1,12.339,54.621Z" transform="translate(137.632 366.97)" fill="#9f9f9f"/></g><g transform="translate(8702.739 -230.261)"><g transform="translate(94.261 343.261)" fill="#fff" stroke="#fa0" stroke-linejoin="round" stroke-width="6"><rect width="169" height="169" rx="24" stroke="none"/><rect x="-3" y="-3" width="175" height="175" rx="27" fill="none"/></g><path d="M11.955,0a3,3,0,0,1,2.939,2.43l.187,1.555H67.47a4.04,4.04,0,0,1,3.836,5.063L64.581,32.963a3.986,3.986,0,0,1-3.836,2.9H21.257L22.4,41.842H60.77a2.989,2.989,0,1,1,0,5.977H19.813a2.973,2.973,0,0,1-2.827-2.428L9.482,5.977H2.989A2.989,2.989,0,0,1,2.989,0ZM15.94,57.782a5.977,5.977,0,1,1,5.977,5.977A5.979,5.979,0,0,1,15.94,57.782Zm47.819,0A5.977,5.977,0,1,1,57.782,51.8,5.979,5.979,0,0,1,63.759,57.782Z" transform="translate(143.036 395.881)" fill="#fa0"/></g><g transform="translate(8488.424 -230.577)"><g transform="translate(94.577 343.577)" fill="#fff" stroke="#db74df" stroke-linejoin="round" stroke-width="6"><rect width="129" height="129" rx="24" stroke="none"/><rect x="-3" y="-3" width="135" height="135" rx="27" fill="none"/></g></g><g transform="translate(8448.739 -483.261)"><g transform="translate(94.261 343.261)" fill="#fff" stroke="#9f9f9f" stroke-linejoin="round" stroke-width="6"><rect width="169" height="169" rx="24" stroke="none"/><rect x="-3" y="-3" width="175" height="175" rx="27" fill="none"/></g><path d="M4.113,32a4.113,4.113,0,0,1,4.113,4.113v32.9h28.79V48.452a4.108,4.108,0,0,1,4.113-4.113H69.92A12.268,12.268,0,0,1,82.258,56.677v28.79a4.113,4.113,0,1,1-8.226,0V81.355H8.226v4.113a4.113,4.113,0,0,1-8.226,0V36.113A4.113,4.113,0,0,1,4.113,32Zm8.226,22.621A10.282,10.282,0,1,1,22.621,64.9,10.279,10.279,0,0,1,12.339,54.621Z" transform="translate(137.632 366.97)" fill="#9f9f9f"/></g><g transform="translate(8953.424 -230.577)"><g transform="translate(94.577 343.577)" fill="#fff" stroke="#74a2df" stroke-linejoin="round" stroke-width="6"><rect width="129" height="129" rx="24" stroke="none"/><rect x="-3" y="-3" width="135" height="135" rx="27" fill="none"/></g></g><g transform="translate(8953.424 -695.577)"><g transform="translate(94.577 343.577)" fill="#fff" stroke="#83c9ff" stroke-linejoin="round" stroke-width="6"><rect width="129" height="129" rx="24" stroke="none"/><rect x="-3" y="-3" width="135" height="135" rx="27" fill="none"/></g></g><g transform="translate(8491.424 -696.577)"><g transform="translate(94.577 343.577)" fill="#fff" stroke="#71b05b" stroke-linejoin="round" stroke-width="6"><rect width="129" height="129" rx="24" stroke="none"/><rect x="-3" y="-3" width="135" height="135" rx="27" fill="none"/></g></g><g transform="translate(8724.424 -939.577)"><g transform="translate(94.577 343.577)" fill="#fff" stroke="#74a2df" stroke-linejoin="round" stroke-width="6"><rect width="129" height="129" rx="24" stroke="none"/><rect x="-3" y="-3" width="135" height="135" rx="27" fill="none"/></g></g><g transform="translate(8722.424 13.423)"><g transform="translate(94.577 343.577)" fill="#fff" stroke="#71b05b" stroke-linejoin="round" stroke-width="6"><rect width="129" height="129" rx="24" stroke="none"/><rect x="-3" y="-3" width="135" height="135" rx="27" fill="none"/></g></g><g transform="translate(8252.424 -463.577)"><g transform="translate(94.577 343.577)" fill="#fff" stroke="#74a2df" stroke-linejoin="round" stroke-width="6"><rect width="129" height="129" rx="24" stroke="none"/><rect x="-3" y="-3" width="135" height="135" rx="27" fill="none"/></g></g><g transform="translate(9189.424 -463.577)"><g transform="translate(94.577 343.577)" fill="#fff" stroke="#db74df" stroke-linejoin="round" stroke-width="6"><rect width="129" height="129" rx="24" stroke="none"/><rect x="-3" y="-3" width="135" height="135" rx="27" fill="none"/></g></g><g transform="translate(8953.24 13.239)"><g transform="translate(94.76 343.761)" fill="#fff" stroke="#83c9ff" stroke-linejoin="round" stroke-width="6"><rect width="93" height="93" rx="24" stroke="none"/><rect x="-3" y="-3" width="99" height="99" rx="27" fill="none"/></g></g><g transform="translate(9178.24 -230.761)"><g transform="translate(94.76 343.761)" fill="#fff" stroke="#83c9ff" stroke-linejoin="round" stroke-width="6"><rect width="93" height="93" rx="24" stroke="none"/><rect x="-3" y="-3" width="99" height="99" rx="27" fill="none"/></g></g><g transform="translate(8809.76 -123.239) rotate(180)"><g transform="translate(94.76 343.761)" fill="#fff" stroke="#83c9ff" stroke-linejoin="round" stroke-width="6"><rect width="93" height="93" rx="24" stroke="none"/><rect x="-3" y="-3" width="99" height="99" rx="27" fill="none"/></g></g><g transform="translate(8584.76 120.761) rotate(180)"><g transform="translate(94.76 343.761)" fill="#fff" stroke="#83c9ff" stroke-linejoin="round" stroke-width="6"><rect width="93" height="93" rx="24" stroke="none"/><rect x="-3" y="-3" width="99" height="99" rx="27" fill="none"/></g></g><g transform="translate(8930.24 -129.24) rotate(-90)"><g transform="translate(94.76 343.761)" fill="#fff" stroke="#83c9ff" stroke-linejoin="round" stroke-width="6"><rect width="93" height="93" rx="24" stroke="none"/><rect x="-3" y="-3" width="99" height="99" rx="27" fill="none"/></g></g><g transform="translate(8686.24 -354.24) rotate(-90)"><g transform="translate(94.76 343.761)" fill="#fff" stroke="#83c9ff" stroke-linejoin="round" stroke-width="6"><rect width="93" height="93" rx="24" stroke="none"/><rect x="-3" y="-3" width="99" height="99" rx="27" fill="none"/></g></g><g transform="translate(8824.762 18.24) rotate(90)"><g transform="translate(94.76 343.761)" fill="#fff" stroke="#83c9ff" stroke-linejoin="round" stroke-width="6"><rect width="93" height="93" rx="24" stroke="none"/><rect x="-3" y="-3" width="99" height="99" rx="27" fill="none"/></g></g><g transform="translate(9068.761 243.24) rotate(90)"><g transform="translate(94.76 343.761)" fill="#fff" stroke="#83c9ff" stroke-linejoin="round" stroke-width="6"><rect width="93" height="93" rx="24" stroke="none"/><rect x="-3" y="-3" width="99" height="99" rx="27" fill="none"/></g></g></g></g></svg>